<svg id="Layer_1" data-name="Layer 1" xmlns="http://www.w3.org/2000/svg" viewBox="0 0 1082.53 325.58"><defs><style>.cls-1{fill:#121212;}.cls-2{fill:#fff;}</style></defs><rect class="cls-1" width="1082.53" height="325.58" rx="62.53"/><path class="cls-2" d="M249.6,175c-5.21-26.47,17.81-40.61,19.49-41.6a43.22,43.22,0,0,0-11.77-10.84c-13.76-8.58-30.52-9.38-40.49-5l-.3.13a38.2,38.2,0,0,1-30.52,0l-.3-.13c-10-4.39-26.73-3.59-40.49,5s-27.13,27.92-20.35,65,31.52,59.64,31.52,59.64a26.8,26.8,0,0,0,27.33,3.4c9.72-4.24,14.15-5,16.1-4.93,1,0,1.93,0,2.9,0,1.95-.05,6.38.69,16.1,4.93a26.8,26.8,0,0,0,27.33-3.4s17.33-15.79,27-42.7C264.83,200.73,253,192.36,249.6,175Z"/><path class="cls-2" d="M196.89,116.2s-4.36-37,37.3-43.6l-.17,5a40.1,40.1,0,0,1-37.13,38.64Z"/><path class="cls-2" d="M363.23,84a38.44,38.44,0,0,1-1.72,12.06,22.8,22.8,0,0,1-5.07,8.74,21.39,21.39,0,0,1-8.28,5.32A34.14,34.14,0,0,1,336.39,112H325.7a2.68,2.68,0,0,1-1.55-.57,2.39,2.39,0,0,1-.8-2.07v-49a2.4,2.4,0,0,1,.8-2.08,2.73,2.73,0,0,1,1.55-.56h11.41a32,32,0,0,1,11.68,1.88,21.47,21.47,0,0,1,8,5.35,22.86,22.86,0,0,1,4.85,8.3A33.64,33.64,0,0,1,363.23,84Zm-5.49.25a30.75,30.75,0,0,0-1.2-8.78,18.61,18.61,0,0,0-3.69-7,17,17,0,0,0-6.31-4.6,24.64,24.64,0,0,0-9.73-1.65h-8.34v45.12h8.39a28.13,28.13,0,0,0,9.37-1.37,15.16,15.16,0,0,0,6.39-4.21,18.28,18.28,0,0,0,3.84-7.19A36.92,36.92,0,0,0,357.74,84.28Z"/><path class="cls-2" d="M408.14,91.75a28.3,28.3,0,0,1-1.17,8.34,19.14,19.14,0,0,1-3.51,6.63,16,16,0,0,1-5.8,4.38,19.48,19.48,0,0,1-8.1,1.57,20,20,0,0,1-7.77-1.4,14.69,14.69,0,0,1-5.58-4,17.08,17.08,0,0,1-3.36-6.35,29.58,29.58,0,0,1-1.11-8.43,28.76,28.76,0,0,1,1.16-8.35,18.29,18.29,0,0,1,3.48-6.6,15.75,15.75,0,0,1,5.8-4.34,19.93,19.93,0,0,1,8.14-1.55A20.28,20.28,0,0,1,398.1,73a14.44,14.44,0,0,1,5.55,4A17.59,17.59,0,0,1,407,83.36,29,29,0,0,1,408.14,91.75Zm-5.28.46a29.41,29.41,0,0,0-.63-6.17,15.25,15.25,0,0,0-2.1-5.18,10.59,10.59,0,0,0-3.94-3.56A13,13,0,0,0,390,76a13.2,13.2,0,0,0-5.87,1.22,10.87,10.87,0,0,0-4,3.37,14.75,14.75,0,0,0-2.33,5.1A25.43,25.43,0,0,0,377,92a29.75,29.75,0,0,0,.63,6.22,14.65,14.65,0,0,0,2.09,5.18,10.52,10.52,0,0,0,3.94,3.53,15,15,0,0,0,12,.08,10.78,10.78,0,0,0,4-3.36,14.43,14.43,0,0,0,2.33-5.07A25.69,25.69,0,0,0,402.86,92.21Z"/><path class="cls-2" d="M469.28,73.09a2.31,2.31,0,0,1-.07.48c0,.18-.09.38-.14.61l-11.74,36.94a1.13,1.13,0,0,1-.32.54,1.62,1.62,0,0,1-.61.34,4.37,4.37,0,0,1-1,.17c-.41,0-.89,0-1.45,0s-1.09,0-1.51-.06a6.39,6.39,0,0,1-1-.19,1.73,1.73,0,0,1-.62-.34,1.08,1.08,0,0,1-.32-.5l-8.81-29.94-.08-.34-.08.34-8.22,29.94a1,1,0,0,1-.34.54,1.78,1.78,0,0,1-.69.34,5.58,5.58,0,0,1-1.07.17c-.42,0-.89,0-1.42,0s-1,0-1.43-.06a6.09,6.09,0,0,1-1-.19,1.53,1.53,0,0,1-.61-.34,1.22,1.22,0,0,1-.3-.5L414.81,74.18a2.7,2.7,0,0,1-.19-.59,2.58,2.58,0,0,1-.06-.5,1,1,0,0,1,.12-.51.73.73,0,0,1,.42-.31,3.3,3.3,0,0,1,.75-.15c.31,0,.69,0,1.14,0a13.5,13.5,0,0,1,1.42.06,3.21,3.21,0,0,1,.82.19,1,1,0,0,1,.4.34,2.35,2.35,0,0,1,.21.5l10,33.13.08.29.09-.29,9.1-33.13a1.44,1.44,0,0,1,.23-.5,1.11,1.11,0,0,1,.42-.34,3.11,3.11,0,0,1,.75-.19,10.45,10.45,0,0,1,1.24-.06,9.3,9.3,0,0,1,1.17.06,3.64,3.64,0,0,1,.76.19,1,1,0,0,1,.42.34,2.35,2.35,0,0,1,.21.5l9.81,33.13.08.29,0-.29,10-33.13a1.93,1.93,0,0,1,.23-.5,1.1,1.1,0,0,1,.44-.34,3.7,3.7,0,0,1,.82-.19,12.6,12.6,0,0,1,1.37-.06c.44,0,.81,0,1.09,0a2.1,2.1,0,0,1,.67.17.67.67,0,0,1,.33.31A1.16,1.16,0,0,1,469.28,73.09Z"/><path class="cls-2" d="M509.7,111.12a.82.82,0,0,1-.13.46.86.86,0,0,1-.4.34,3.5,3.5,0,0,1-.75.21,7.9,7.9,0,0,1-1.2.08,8.14,8.14,0,0,1-1.23-.08,3.62,3.62,0,0,1-.76-.21,1,1,0,0,1-.4-.34.9.9,0,0,1-.12-.46V88.6a24.12,24.12,0,0,0-.55-5.72,11.44,11.44,0,0,0-1.63-3.78,7.51,7.51,0,0,0-2.79-2.43,8.69,8.69,0,0,0-4-.86A10,10,0,0,0,490,77.87a31.22,31.22,0,0,0-6.08,6v27.21a.82.82,0,0,1-.13.46.88.88,0,0,1-.39.34,3.8,3.8,0,0,1-.76.21,8.19,8.19,0,0,1-1.24.08,7.85,7.85,0,0,1-1.19-.08,4.27,4.27,0,0,1-.78-.21.81.81,0,0,1-.4-.34,1.15,1.15,0,0,1-.1-.46V73.17a1.15,1.15,0,0,1,.1-.46.89.89,0,0,1,.4-.36,3,3,0,0,1,.74-.21,8.85,8.85,0,0,1,1.15-.06,9.19,9.19,0,0,1,1.17.06,2.39,2.39,0,0,1,.72.21.92.92,0,0,1,.35.36,1,1,0,0,1,.11.46v5.37a23.61,23.61,0,0,1,6.41-5.29,13.46,13.46,0,0,1,6.25-1.63,14.13,14.13,0,0,1,6.29,1.26,11.13,11.13,0,0,1,4.13,3.39,14,14,0,0,1,2.27,5,29.67,29.67,0,0,1,.69,6.88Z"/><path class="cls-2" d="M528.53,111.12a.86.86,0,0,1-.53.8,3.5,3.5,0,0,1-.75.21,8.39,8.39,0,0,1-1.24.08,8,8,0,0,1-1.2-.08,3.93,3.93,0,0,1-.77-.21.77.77,0,0,1-.4-.34,1,1,0,0,1-.1-.46V54.59a1,1,0,0,1,.1-.46.83.83,0,0,1,.4-.35,2.3,2.3,0,0,1,.77-.21,9.82,9.82,0,0,1,1.2-.07,10.29,10.29,0,0,1,1.24.07,2.11,2.11,0,0,1,.75.21,1,1,0,0,1,.4.35.94.94,0,0,1,.13.46Z"/><path class="cls-2" d="M576.08,91.75a28.3,28.3,0,0,1-1.18,8.34,19.12,19.12,0,0,1-3.5,6.63,16,16,0,0,1-5.81,4.38,19.43,19.43,0,0,1-8.09,1.57,20,20,0,0,1-7.78-1.4,14.85,14.85,0,0,1-5.58-4,17.21,17.21,0,0,1-3.35-6.35,29.58,29.58,0,0,1-1.11-8.43,28.76,28.76,0,0,1,1.15-8.35,18.6,18.6,0,0,1,3.48-6.6,15.78,15.78,0,0,1,5.81-4.34,19.89,19.89,0,0,1,8.13-1.55A20.21,20.21,0,0,1,566,73a14.4,14.4,0,0,1,5.56,4,17.42,17.42,0,0,1,3.35,6.35A28.66,28.66,0,0,1,576.08,91.75Zm-5.29.46a29.41,29.41,0,0,0-.63-6.17,15.24,15.24,0,0,0-2.09-5.18,10.67,10.67,0,0,0-3.94-3.56A13,13,0,0,0,558,76a13.2,13.2,0,0,0-5.87,1.22A10.82,10.82,0,0,0,548,80.57a14.92,14.92,0,0,0-2.32,5.1A25,25,0,0,0,545,92a29.75,29.75,0,0,0,.63,6.22,14.85,14.85,0,0,0,2.1,5.18,10.52,10.52,0,0,0,3.94,3.53,15,15,0,0,0,12,.08,10.89,10.89,0,0,0,4.05-3.36A14.61,14.61,0,0,0,570,98.58,25.7,25.7,0,0,0,570.79,92.21Z"/><path class="cls-2" d="M613.86,111.12a.79.79,0,0,1-.28.65,1.73,1.73,0,0,1-.71.33,5.28,5.28,0,0,1-1.19.11,6.05,6.05,0,0,1-1.22-.11,1.82,1.82,0,0,1-.78-.33.82.82,0,0,1-.27-.65v-4.24a19,19,0,0,1-5.64,4.28,14.28,14.28,0,0,1-6.39,1.51,17.06,17.06,0,0,1-5.35-.78,11,11,0,0,1-4-2.22,9.73,9.73,0,0,1-2.52-3.5,11.55,11.55,0,0,1-.88-4.61,10.54,10.54,0,0,1,5-9.35,17.8,17.8,0,0,1,5.74-2.33,33.08,33.08,0,0,1,7.47-.78h6V85.83a16.28,16.28,0,0,0-.51-4.29,7.48,7.48,0,0,0-1.63-3.13,6.88,6.88,0,0,0-2.94-1.88,13.43,13.43,0,0,0-4.4-.63,15.83,15.83,0,0,0-4.53.6,22.32,22.32,0,0,0-3.52,1.37c-1,.5-1.84.95-2.5,1.36a3.25,3.25,0,0,1-1.4.61,1.14,1.14,0,0,1-.46-.09.76.76,0,0,1-.36-.31,1.52,1.52,0,0,1-.21-.59,5.26,5.26,0,0,1-.06-.86,6.55,6.55,0,0,1,.12-1.4,2.42,2.42,0,0,1,.65-1A8.6,8.6,0,0,1,589,74.3,23.73,23.73,0,0,1,592.07,73a26.08,26.08,0,0,1,3.76-1,21,21,0,0,1,4-.38,19.92,19.92,0,0,1,6.58.94,10.63,10.63,0,0,1,4.34,2.71,10,10,0,0,1,2.37,4.34,21.79,21.79,0,0,1,.72,5.85Zm-5-17.91H602a23,23,0,0,0-5.29.55,11,11,0,0,0-3.77,1.59,6.7,6.7,0,0,0-2.24,2.52,7.37,7.37,0,0,0-.74,3.35,6.84,6.84,0,0,0,2.08,5.22,8.2,8.2,0,0,0,5.85,2,10.67,10.67,0,0,0,5.55-1.53,24.89,24.89,0,0,0,5.48-4.71Z"/><path class="cls-2" d="M658.3,111.12a1.12,1.12,0,0,1-.1.5.8.8,0,0,1-.38.34,3.06,3.06,0,0,1-.69.19,7.63,7.63,0,0,1-1,.06,8.39,8.39,0,0,1-1.11-.06,3.12,3.12,0,0,1-.71-.19,1.11,1.11,0,0,1-.42-.34.84.84,0,0,1-.15-.5v-5.45a26.62,26.62,0,0,1-6.25,5.13,13.76,13.76,0,0,1-7,1.87,14.34,14.34,0,0,1-7-1.59,13.5,13.5,0,0,1-4.72-4.32,19,19,0,0,1-2.66-6.4,34.75,34.75,0,0,1-.84-7.78,33.35,33.35,0,0,1,1.05-8.7,19.21,19.21,0,0,1,3.1-6.6,13.86,13.86,0,0,1,5.07-4.19,15.86,15.86,0,0,1,7-1.47,13.12,13.12,0,0,1,6.29,1.53,21.84,21.84,0,0,1,5.61,4.51V54.8a1,1,0,0,1,.11-.46.71.71,0,0,1,.4-.33,2.9,2.9,0,0,1,.77-.21,6.67,6.67,0,0,1,1.2-.09,7.08,7.08,0,0,1,1.24.09,2.63,2.63,0,0,1,.75.21.88.88,0,0,1,.4.33.93.93,0,0,1,.12.46Zm-5-27.38a30.35,30.35,0,0,0-6.06-5.83,10.56,10.56,0,0,0-6.1-2,8.66,8.66,0,0,0-4.94,1.38,10.83,10.83,0,0,0-3.36,3.65A17.27,17.27,0,0,0,631,86a28.72,28.72,0,0,0-.58,5.79,37.17,37.17,0,0,0,.5,6.12,17.91,17.91,0,0,0,1.72,5.31,10.29,10.29,0,0,0,3.23,3.73,8.55,8.55,0,0,0,5,1.4,10.34,10.34,0,0,0,2.94-.42,11.68,11.68,0,0,0,2.93-1.38,20.45,20.45,0,0,0,3.12-2.49,41.34,41.34,0,0,0,3.46-3.8Z"/><path class="cls-2" d="M725.31,91.75a28.3,28.3,0,0,1-1.17,8.34,19.29,19.29,0,0,1-3.5,6.63,16.07,16.07,0,0,1-5.81,4.38,19.46,19.46,0,0,1-8.09,1.57,20,20,0,0,1-7.78-1.4,14.77,14.77,0,0,1-5.58-4,17.06,17.06,0,0,1-3.35-6.35,29.21,29.21,0,0,1-1.12-8.43,28.76,28.76,0,0,1,1.16-8.35,18.6,18.6,0,0,1,3.48-6.6,15.7,15.7,0,0,1,5.81-4.34,19.89,19.89,0,0,1,8.13-1.55A20.24,20.24,0,0,1,715.27,73a14.44,14.44,0,0,1,5.55,4,17.44,17.44,0,0,1,3.36,6.35A29,29,0,0,1,725.31,91.75Zm-5.28.46A29.41,29.41,0,0,0,719.4,86a15.25,15.25,0,0,0-2.1-5.18,10.59,10.59,0,0,0-3.94-3.56A13,13,0,0,0,707.2,76a13.17,13.17,0,0,0-5.87,1.22,10.82,10.82,0,0,0-4.05,3.37,14.93,14.93,0,0,0-2.33,5.1A25.43,25.43,0,0,0,694.2,92a29.75,29.75,0,0,0,.63,6.22,14.84,14.84,0,0,0,2.09,5.18,10.59,10.59,0,0,0,3.94,3.53,15,15,0,0,0,12,.08,10.89,10.89,0,0,0,4.05-3.36,14.59,14.59,0,0,0,2.32-5.07A25.23,25.23,0,0,0,720,92.21Z"/><path class="cls-2" d="M767.28,111.12a.9.9,0,0,1-.12.46,1,1,0,0,1-.4.34,3.5,3.5,0,0,1-.75.21,8,8,0,0,1-1.2.08,8.39,8.39,0,0,1-1.24-.08,3.5,3.5,0,0,1-.75-.21.86.86,0,0,1-.53-.8V88.6a24.73,24.73,0,0,0-.54-5.72,11.25,11.25,0,0,0-1.64-3.78,7.4,7.4,0,0,0-2.78-2.43,8.76,8.76,0,0,0-4-.86,9.94,9.94,0,0,0-5.78,2.06,31.22,31.22,0,0,0-6.08,6v27.21a.86.86,0,0,1-.53.8,3.5,3.5,0,0,1-.75.21,8.29,8.29,0,0,1-1.24.08,7.85,7.85,0,0,1-1.19-.08,4.05,4.05,0,0,1-.78-.21.77.77,0,0,1-.4-.34,1,1,0,0,1-.1-.46V73.17a1,1,0,0,1,.1-.46.84.84,0,0,1,.4-.36,3,3,0,0,1,.73-.21,9,9,0,0,1,1.16-.06,9.42,9.42,0,0,1,1.17.06,2.23,2.23,0,0,1,.71.21.89.89,0,0,1,.36.36,1,1,0,0,1,.1.46v5.37a23.63,23.63,0,0,1,6.42-5.29,13.46,13.46,0,0,1,6.25-1.63,14.16,14.16,0,0,1,6.29,1.26,11.21,11.21,0,0,1,4.13,3.39,13.81,13.81,0,0,1,2.26,5,29.67,29.67,0,0,1,.69,6.88Z"/><path class="cls-2" d="M818.82,108.85a5.53,5.53,0,0,1-.15,1.43,1.91,1.91,0,0,1-.46.86,3.11,3.11,0,0,1-.92.59,8.65,8.65,0,0,1-1.41.46,16.57,16.57,0,0,1-1.67.29,14.58,14.58,0,0,1-1.72.11,13.42,13.42,0,0,1-4.78-.76,7.56,7.56,0,0,1-3.23-2.28,9.59,9.59,0,0,1-1.83-3.88,24.31,24.31,0,0,1-.56-5.54V76.53h-5.66a1.07,1.07,0,0,1-.93-.53,3,3,0,0,1-.33-1.57,5.27,5.27,0,0,1,.08-1,2.4,2.4,0,0,1,.25-.67,1.14,1.14,0,0,1,.4-.39,1,1,0,0,1,.53-.13h5.66V63a1,1,0,0,1,.1-.46.89.89,0,0,1,.4-.36,3.1,3.1,0,0,1,.78-.21,9.89,9.89,0,0,1,1.19-.06,10.45,10.45,0,0,1,1.24.06,2.63,2.63,0,0,1,.75.21,1,1,0,0,1,.4.36.82.82,0,0,1,.13.46v9.31h10.48a1,1,0,0,1,.52.13,1,1,0,0,1,.4.39,2.12,2.12,0,0,1,.25.67,4.44,4.44,0,0,1,.09,1,2.78,2.78,0,0,1-.36,1.57,1.07,1.07,0,0,1-.9.53H807.08V99.46a14.12,14.12,0,0,0,1.23,6.59c.83,1.5,2.33,2.26,4.51,2.26a7.42,7.42,0,0,0,1.83-.21,11.68,11.68,0,0,0,1.44-.46c.42-.17.78-.32,1.07-.46a1.86,1.86,0,0,1,.78-.21,1,1,0,0,1,.38.08.63.63,0,0,1,.27.32,2.91,2.91,0,0,1,.17.58A5.62,5.62,0,0,1,818.82,108.85Z"/><path class="cls-2" d="M859.53,111.12a.9.9,0,0,1-.12.46,1,1,0,0,1-.4.34,3.5,3.5,0,0,1-.75.21,8,8,0,0,1-1.2.08,8.29,8.29,0,0,1-1.24-.08,3.5,3.5,0,0,1-.75-.21.86.86,0,0,1-.53-.8V88.6a24.73,24.73,0,0,0-.54-5.72,11.25,11.25,0,0,0-1.64-3.78,7.4,7.4,0,0,0-2.78-2.43,8.76,8.76,0,0,0-4-.86,9.94,9.94,0,0,0-5.78,2.06,31.22,31.22,0,0,0-6.08,6v27.21a.86.86,0,0,1-.53.8,3.5,3.5,0,0,1-.75.21,8.29,8.29,0,0,1-1.24.08,7.85,7.85,0,0,1-1.19-.08,4.05,4.05,0,0,1-.78-.21.77.77,0,0,1-.4-.34,1,1,0,0,1-.1-.46V54.59a1,1,0,0,1,.1-.46.83.83,0,0,1,.4-.35,2.36,2.36,0,0,1,.78-.21,9.64,9.64,0,0,1,1.19-.07,10.16,10.16,0,0,1,1.24.07,2.11,2.11,0,0,1,.75.21,1,1,0,0,1,.4.35.94.94,0,0,1,.13.46v23.7a22.5,22.5,0,0,1,6.2-5.06,13.43,13.43,0,0,1,6.21-1.61,14.16,14.16,0,0,1,6.29,1.26,11.21,11.21,0,0,1,4.13,3.39,13.81,13.81,0,0,1,2.26,5,29.67,29.67,0,0,1,.69,6.88Z"/><path class="cls-2" d="M904.32,90.19a2.4,2.4,0,0,1-.8,2.08,2.68,2.68,0,0,1-1.55.57H876.1a27.15,27.15,0,0,0,.69,6.37,12.7,12.7,0,0,0,2.28,4.89,10.4,10.4,0,0,0,4.16,3.12,16,16,0,0,0,6.29,1.09,21.86,21.86,0,0,0,4.73-.46,27.64,27.64,0,0,0,3.63-1c1-.38,1.86-.72,2.52-1a4.09,4.09,0,0,1,1.4-.46.82.82,0,0,1,.46.13.86.86,0,0,1,.34.4,3.06,3.06,0,0,1,.19.69,7.63,7.63,0,0,1,.06,1,3.43,3.43,0,0,1,0,.56c0,.18-.07.35-.11.51a1.54,1.54,0,0,1-.19.44,2,2,0,0,1-.33.42,6.35,6.35,0,0,1-1.3.73,20,20,0,0,1-2.85,1,38.73,38.73,0,0,1-4.09.94,28.2,28.2,0,0,1-5,.42,21.39,21.39,0,0,1-7.8-1.32,14.52,14.52,0,0,1-5.7-3.9,17,17,0,0,1-3.5-6.39,29.61,29.61,0,0,1-1.2-8.85A27.77,27.77,0,0,1,872,83.57a18.41,18.41,0,0,1,3.54-6.48A15.39,15.39,0,0,1,881.07,73a18.1,18.1,0,0,1,7.23-1.4A17,17,0,0,1,895.6,73a14,14,0,0,1,5,3.84,15.64,15.64,0,0,1,2.86,5.6,24.55,24.55,0,0,1,.9,6.71Zm-5.16-1.46q.12-6-2.77-9.44T888,75.9a10.9,10.9,0,0,0-8.65,3.9A12.35,12.35,0,0,0,877,83.88a17.57,17.57,0,0,0-.92,4.85Z"/><path class="cls-2" d="M476.84,193a35.08,35.08,0,0,0-5-11.9,25.29,25.29,0,0,0-9.06-8.25,27.66,27.66,0,0,0-13.35-3,28.2,28.2,0,0,0-6.79.8,25.87,25.87,0,0,0-6.27,2.49,38.15,38.15,0,0,0-5.94,4.1c-.78.65-1.58,1.35-2.41,2.1v-9.49H415.75V270.11H428.8V238.55c.59.52,1.17,1,1.73,1.46a35.48,35.48,0,0,0,5.27,3.54,23.64,23.64,0,0,0,5.57,2.15,26,26,0,0,0,6,.69,30.1,30.1,0,0,0,13.26-2.84,27.2,27.2,0,0,0,9.81-8,36.32,36.32,0,0,0,5.9-12.4,60.75,60.75,0,0,0,1.95-16A64.23,64.23,0,0,0,476.84,193Zm-13,25.2a29.29,29.29,0,0,1-3.12,8.47,17.13,17.13,0,0,1-5.29,5.78,13,13,0,0,1-7.55,2.11,15.88,15.88,0,0,1-9.36-3.19,53.76,53.76,0,0,1-9.69-9.33V194.51a59.58,59.58,0,0,1,5.38-5.87,36.21,36.21,0,0,1,5.23-4.15,18.26,18.26,0,0,1,4.64-2.19,16.72,16.72,0,0,1,4.61-.65,13.15,13.15,0,0,1,7.61,2,15.68,15.68,0,0,1,4.93,5.73,29.52,29.52,0,0,1,2.78,8.64,62.19,62.19,0,0,1,.86,10.45A47,47,0,0,1,463.81,218.23Z"/><path class="cls-2" d="M555.39,193a35.48,35.48,0,0,0-5-11.9,25.45,25.45,0,0,0-9.06-8.25,27.71,27.71,0,0,0-13.35-3,28.14,28.14,0,0,0-6.79.8,25.93,25.93,0,0,0-6.28,2.49,39.12,39.12,0,0,0-5.94,4.1q-1.17,1-2.4,2.1v-9.49H494.29V270.11h13.06V238.55c.58.52,1.16,1,1.72,1.46a35.55,35.55,0,0,0,5.28,3.54,23.4,23.4,0,0,0,5.56,2.15,26,26,0,0,0,6,.69,30.15,30.15,0,0,0,13.27-2.84,27.25,27.25,0,0,0,9.8-8,36,36,0,0,0,5.9-12.4,60.73,60.73,0,0,0,2-16A64.23,64.23,0,0,0,555.39,193Zm-13,25.2a29.29,29.29,0,0,1-3.12,8.47,17,17,0,0,1-5.28,5.78,13,13,0,0,1-7.55,2.11A15.88,15.88,0,0,1,517,231.4a53.43,53.43,0,0,1-9.69-9.33V194.51a59.58,59.58,0,0,1,5.37-5.87,36.21,36.21,0,0,1,5.23-4.15,18.16,18.16,0,0,1,4.65-2.19,16.62,16.62,0,0,1,4.61-.65,13.11,13.11,0,0,1,7.6,2,15.58,15.58,0,0,1,4.93,5.73,29.23,29.23,0,0,1,2.78,8.64,62.19,62.19,0,0,1,.86,10.45A47,47,0,0,1,542.35,218.23Z"/><path class="cls-2" d="M778.64,180.09a27.42,27.42,0,0,0-10.59-7.64,37.69,37.69,0,0,0-14.51-2.6,37.25,37.25,0,0,0-15.19,2.91,30.18,30.18,0,0,0-11,8.23,34.88,34.88,0,0,0-6.53,12.37,52.9,52.9,0,0,0-2.12,15.31,54.26,54.26,0,0,0,2,15.45,32.31,32.31,0,0,0,6.33,12,28.06,28.06,0,0,0,10.61,7.67,37.32,37.32,0,0,0,14.52,2.64,36.66,36.66,0,0,0,15.13-3,30.17,30.17,0,0,0,11-8.3,35.84,35.84,0,0,0,6.57-12.4,52.21,52.21,0,0,0,2.16-15.31A53.29,53.29,0,0,0,785,192,33.1,33.1,0,0,0,778.64,180.09Zm-5.17,28.14a43,43,0,0,1-1.26,10.69,23.47,23.47,0,0,1-3.75,8.19,17.16,17.16,0,0,1-6.34,5.26,24.39,24.39,0,0,1-19.25-.12,16.36,16.36,0,0,1-6.15-5.49,24.23,24.23,0,0,1-3.39-8.38,51,51,0,0,1-1.06-10.52,43.12,43.12,0,0,1,1.26-10.62,24.18,24.18,0,0,1,3.76-8.24,16.93,16.93,0,0,1,6.34-5.28,21.11,21.11,0,0,1,9.39-1.93,20.84,20.84,0,0,1,9.85,2.08,16.45,16.45,0,0,1,6.15,5.56,24.69,24.69,0,0,1,3.39,8.39A49.46,49.46,0,0,1,773.47,208.23Z"/><path class="cls-2" d="M370.72,148.36H355.2l-32.35,97.88h13.24l7.2-28.05H382.2l7.46,28.05h13.41Zm-23.28,58,15.07-43,15.43,43Z"/><path class="cls-2" d="M659.14,206.55a26.14,26.14,0,0,0-5.55-7.79,37.18,37.18,0,0,0-7.63-5.65c-2.72-1.51-5.52-3-8.33-4.27s-5.51-2.61-8.17-3.9a40,40,0,0,1-6.83-4.17,18.19,18.19,0,0,1-4.57-5,12.41,12.41,0,0,1-1.61-6.5,13.67,13.67,0,0,1,.92-5,11,11,0,0,1,2.7-4,13.22,13.22,0,0,1,4.65-2.75,20.16,20.16,0,0,1,6.87-1.06,24.74,24.74,0,0,1,7.27,1,32.85,32.85,0,0,1,5.61,2.25c1.61.85,3,1.63,4,2.3l5.4-11.27a14.25,14.25,0,0,0-3.4-2.23,35.88,35.88,0,0,0-5.26-2.2,46.83,46.83,0,0,0-6.15-1.59,35.45,35.45,0,0,0-6.52-.63,38.28,38.28,0,0,0-11.76,1.73,27.42,27.42,0,0,0-9.41,5.09,23.26,23.26,0,0,0-6.17,8.2A26,26,0,0,0,603,169.92a25.39,25.39,0,0,0,2.11,10.71,26.62,26.62,0,0,0,5.51,7.83,37.2,37.2,0,0,0,7.55,5.67c2.69,1.55,5.49,3,8.31,4.33s5.49,2.6,8.12,3.9a40,40,0,0,1,6.77,4.13,18.22,18.22,0,0,1,4.53,5,12.41,12.41,0,0,1,1.61,6.5,16.34,16.34,0,0,1-1.33,6.76,13.46,13.46,0,0,1-3.67,4.89,17.05,17.05,0,0,1-5.78,3.11,24.66,24.66,0,0,1-7.61,1.12,30.67,30.67,0,0,1-9.07-1.2,44.12,44.12,0,0,1-6.83-2.67,41.88,41.88,0,0,1-4.63-2.66l-2.69,13.52a41,41,0,0,0,5.65,2.53,51.92,51.92,0,0,0,7.54,2.12,44,44,0,0,0,9.07.9,42.37,42.37,0,0,0,13.06-1.95,30.8,30.8,0,0,0,10.54-5.76,26.35,26.35,0,0,0,7-9.27,29.43,29.43,0,0,0,2.48-12.25A25,25,0,0,0,659.14,206.55Z"/><path class="cls-2" d="M704.17,233.41a20.57,20.57,0,0,1-2.28.73,10.93,10.93,0,0,1-2.68.3c-4,0-5.39-1.64-6.06-2.88-1.28-2.32-1.92-5.88-1.92-10.56V182.75h15.88V171H691.23V156.78l-13.06,5.75V171h-7.08v11.72h7.08v39.43a44.21,44.21,0,0,0,1.06,10.24,19,19,0,0,0,3.64,7.69,15.55,15.55,0,0,0,6.57,4.66,25.87,25.87,0,0,0,9.18,1.47,28.56,28.56,0,0,0,3.28-.2,28.24,28.24,0,0,0,3.19-.56,16.14,16.14,0,0,0,2.85-.94l-2-11.89C705.46,232.88,704.87,233.13,704.17,233.41Z"/><path class="cls-2" d="M832.11,169.85h-.55a19.87,19.87,0,0,0-4.82.58,16.41,16.41,0,0,0-5,2.24,28.66,28.66,0,0,0-5,4.34c-.52.56-1.06,1.17-1.62,1.85v-9H802.49v76.39h13V197c1.71-2.71,3.29-5,4.7-6.93a32,32,0,0,1,4.15-4.67,13.63,13.63,0,0,1,3.46-2.37,7.4,7.4,0,0,1,3-.67c.3,0,.62,0,1,0l2.29.17V169.91Z"/><path class="cls-2" d="M897.46,229.8c-.3.12-.61.25-1,.41-1.1.51-2.53,1.1-4.26,1.74a46.87,46.87,0,0,1-6.11,1.73,37.42,37.42,0,0,1-7.88.76A26.36,26.36,0,0,1,868,232.69a16.08,16.08,0,0,1-6.46-4.85,20.4,20.4,0,0,1-3.63-7.79,43.39,43.39,0,0,1-1.12-8.58h43.37a6.84,6.84,0,0,0,4-1.39c1.53-1.09,2.3-2.9,2.3-5.4v-1.77a45.76,45.76,0,0,0-1.66-12.39,29.77,29.77,0,0,0-5.42-10.62,26.78,26.78,0,0,0-9.5-7.34,32.11,32.11,0,0,0-13.75-2.71,34.12,34.12,0,0,0-13.58,2.64A29.08,29.08,0,0,0,852,180.22a34.89,34.89,0,0,0-6.66,12.14,51.71,51.71,0,0,0-2.28,15.87,54.56,54.56,0,0,0,2.2,16.21,32.51,32.51,0,0,0,6.61,12,28,28,0,0,0,10.86,7.44,40,40,0,0,0,14.51,2.47,51.46,51.46,0,0,0,9.2-.78,70.1,70.1,0,0,0,7.42-1.71c1.37-.41,2.57-.81,3.61-1.22Zm-39.18-35.53a20.08,20.08,0,0,1,3.64-6.51,17.05,17.05,0,0,1,13.61-6.11c5.89,0,10.21,1.71,13.21,5.23,2.7,3.16,4.16,7.56,4.35,13.08H857A28,28,0,0,1,858.28,194.27Z"/></svg>