<svg id="Layer_1" data-name="Layer 1" xmlns="http://www.w3.org/2000/svg" viewBox="0 0 500 500"><defs><style>.cls-1{fill:#fbb03f;}.cls-2{fill:#e4252b;}.cls-3{fill:#00c8c2;}</style></defs><path class="cls-1" d="M222.25,321.06A82.6,82.6,0,0,1,193,292.83h0l0-.06h0l-.07-.12-.2-.33-.36-.59-.2-.35c-.16-.26-.31-.52-.46-.78l-.17-.29c-.16-.28-.32-.56-.47-.84l-.17-.31-.43-.78,0-.09v0h0c-.41-.73-.8-1.47-1.19-2.21l-.16-.29c-.41-.78-.81-1.57-1.2-2.35a1,1,0,0,1-.07-.15A136.11,136.11,0,0,1,175.37,246s0-.06,0-.08a.15.15,0,0,0,0-.07c-.14-.82-.28-1.64-.41-2.46,0-.17-.05-.34-.08-.51-.09-.64-.19-1.28-.28-1.92,0-.26-.07-.52-.1-.78-.09-.61-.16-1.23-.24-1.84l-.12-1.09,0-.25c-.05-.42-.09-.83-.13-1.25s-.09-1-.14-1.45-.07-.79-.1-1.19-.07-.84-.1-1.26c0-.58-.08-1.16-.11-1.74,0-.3,0-.6-.05-.9,0-.72-.07-1.43-.1-2.15,0-.15,0-.3,0-.45,0-.8-.05-1.61-.06-2.42v0a138,138,0,0,1,28.18-85.61l1.06-1.37.94-1.19.11-.13a134.64,134.64,0,0,1,17-17.62l.71-.62.4-.33,1.09-.92.22-.18,1.35-1.1v0A139.38,139.38,0,0,1,242,103l0,0a137.44,137.44,0,0,1,33.21-13.78c1.1-.3,2.21-.58,3.32-.85a135.29,135.29,0,0,1,15.19-2.75l1.81-.22.59-.06,1.22-.12.7-.07,1.13-.1.72-.06,1.14-.08.68,0,1.3-.08.51,0,1.82-.08h.3l1.51,0h.61l1.21,0h4.34l1.45,0h.36l1.82.07.42,0,1.39.08.63,0,1.18.08.69,0,1.14.09.69.06,1.18.12.48,0a175.46,175.46,0,0,0-213.08,74.86v0a5.36,5.36,0,0,1-.14.54.56.56,0,0,1,0,.12,4.91,4.91,0,0,1-.17.5.43.43,0,0,0,0,.05c-.07.17-.15.34-.23.52L111,162q-.12.26-.27.51c-.51.89-1,1.8-1.52,2.71C77.75,223.06,97.77,294.12,154.79,327l1.59.9.54.3,1.05.57.67.36.88.46a120.34,120.34,0,0,0,106.64,2.08c-1.1.05-2.21.08-3.32.08A82.14,82.14,0,0,1,222.25,321.06Z"/><path class="cls-2" d="M409.58,153.32l-.3-.44-1-1.44,0,0-1-1.39-.29-.39-.79-1c-.11-.14-.21-.28-.32-.41-.28-.37-.56-.73-.85-1.09a3.25,3.25,0,0,1-.23-.29c-.75-.93-1.5-1.85-2.27-2.75l-.24-.28q-.45-.54-.93-1.08l-.26-.3c-.34-.39-.69-.78-1-1.16l-.12-.14c-.82-.9-1.64-1.78-2.47-2.64l-.18-.18c-.36-.38-.72-.75-1.09-1.12L396,137q-1.92-1.92-3.91-3.75l-.1-.09L390.68,132l-.1-.09c-1.37-1.22-2.77-2.39-4.18-3.54l0,0L385,127.22h0a120.34,120.34,0,0,0-30-17.15l0,0q-3.35-1.32-6.77-2.43l-.11,0q-2.55-.82-5.13-1.54l-.09,0-1.58-.42-.21-.06-1.63-.41h0c-1.15-.28-2.3-.54-3.45-.79l-.23,0-1.46-.3-.31-.06-1.54-.3-.14,0q-1.71-.31-3.42-.57l-.35-.06-1.35-.19-.4-.06-1.46-.18-.22,0-1.73-.2h-.16c-.5-.06-1-.11-1.51-.15l-.44,0-1.26-.11-.48,0-1.4-.1-.28,0-1.7-.09h-.3l-1.38,0-.5,0-1.22,0h-2.18l-1.76,0h-.39c-.46,0-.91,0-1.37,0h-.51l-1.41.06-.34,0c-.59,0-1.17.06-1.75.09l-.37,0-1.38.1-.53,0-1.32.12-.45,0c-.57,0-1.15.11-1.72.18l-.34,0-1.39.17-.57.07-1.24.17-.52.07-1.7.26-.29,0-1.43.25-.59.1-1.18.22-.58.11-1.57.32-.27.06-1.54.34-.6.14-1.15.27-.61.15-1.36.35-.34.09q-.83.21-1.65.45l-.57.16-1.16.34-.61.18-1.27.39-.42.13-1.65.54L272,108l-1.18.41-.59.21L269,109l-.46.17c-.55.2-1.09.41-1.64.63l-.44.17-1.24.5-.57.23-1.2.51-.47.2-1.64.72-.33.15-1.33.61-.52.25-1.2.58-.47.23-1.63.82-.19.09-1.44.76-.5.26-1.18.65-.48.26-1.61.91-.94.56-.49.29q-3.54,2.12-6.9,4.44l-.65.45-.5.35a121,121,0,0,0-49.85,85.64,82.16,82.16,0,0,1,138.21-8l81.1-46.81-.17-.26Z"/><path class="cls-3" d="M307.85,324.06,306,325.69l-.35.31c-.54.48-1.08.95-1.63,1.41l-.62.52L302,329.12l-.91.73-1.21,1-1.19.92-.81.63-.25.18-.33.25c-.61.46-1.23.91-1.86,1.36l-.13.1c-.69.5-1.38,1-2.07,1.46l-.19.13a136.69,136.69,0,0,1-38.28,18.41l-.6.18c-.69.21-1.37.41-2.06.6l-.72.2-.85.23-.7.18-.77.2-2.09.52-.56.13a136.73,136.73,0,0,1-42.84,3.21l-.61,0-.2,0c-2.72-.24-5.45-.57-8.16-1a136.21,136.21,0,0,1-43.27-14.15l-.19-.1c-.75-.39-1.5-.79-2.24-1.2l-.4-.23c-.75-.41-1.49-.82-2.23-1.25l-2.12-1.25-.42-.26-2-1.25-.36-.23-1.91-1.22-.21-.15-2-1.34-.41-.28-2-1.38-.23-.17c-.61-.44-1.22-.88-1.82-1.33l-.31-.23c-.63-.47-1.26-1-1.89-1.44l-.37-.29c-.64-.5-1.28-1-1.91-1.52h0c-.63-.51-1.25-1-1.87-1.55l-.33-.27L124.3,326l-.29-.25-1.75-1.57-.1-.09-1.78-1.66-.31-.3-1.73-1.67-.18-.18c-.55-.54-1.09-1.09-1.63-1.64l-.2-.21c-.56-.57-1.11-1.15-1.66-1.74l-.29-.3c-.55-.6-1.11-1.2-1.65-1.81h0l-1.61-1.83-.24-.28c-.53-.61-1-1.22-1.55-1.83l-.24-.28-1.53-1.88,0,0c-.51-.64-1-1.28-1.51-1.93l-.25-.33q-.74-1-1.44-1.92l-.17-.22-1.35-1.88-.15-.21c-.46-.65-.91-1.31-1.36-2l-.24-.35c-.45-.67-.9-1.35-1.34-2l-.06-.09c-.43-.66-.85-1.33-1.26-2l-.21-.33-1.23-2-.21-.36c-.41-.69-.81-1.38-1.21-2.08l0,0c-.4-.7-.79-1.41-1.17-2.11-.08-.14-.15-.28-.22-.42-.38-.69-.75-1.39-1.11-2.08l-.17-.35c-.34-.65-.67-1.31-1-2,0-.1-.09-.19-.14-.29l-1-2.12c-.07-.16-.14-.32-.22-.48-.33-.71-.66-1.43-1-2.15l0-.07C103,362.11,175.6,426,262.84,426a176.35,176.35,0,0,0,147.71-80.57l-81-46.78A136.45,136.45,0,0,1,307.94,324l0,0Z"/></svg>