<svg id="Layer_1" data-name="Layer 1" xmlns="http://www.w3.org/2000/svg" viewBox="0 0 500 500"><defs><style>.cls-1{fill:#0038b3;}.cls-1,.cls-2{fill-rule:evenodd;}.cls-2{fill:#1394d3;}</style></defs><path class="cls-1" d="M206.65,418.35a52.11,52.11,0,0,0,5.25-17.1l36.94-272.06c-12,0-60.81-1.38-74.13,3.49a47.22,47.22,0,0,0-14.83,8.87,52.88,52.88,0,0,0-11.6,13.85l0,0a43.53,43.53,0,0,0-5.27,15.7L106.09,444.83H162a52.49,52.49,0,0,0,18.5-3.1,47.44,47.44,0,0,0,15.23-9.39A49.48,49.48,0,0,0,206.65,418.35Z"/><path class="cls-2" d="M301.29,55.29l-31.64,232c113.82,0,104.24-28.3,115.18-113v0q1.64-12.69,3.31-25.11,1.92-14.43,3-22.21h0c1.46-10.34,4.07-21,1.92-31.35a46.64,46.64,0,0,0-3-9.37,55.19,55.19,0,0,0-4.81-8.72l0,0a50.12,50.12,0,0,0-6.07-7.34l0,0C359.78,50.71,326.4,55.29,301.29,55.29Z"/><circle cx="300.01" cy="393.61" r="51.57"/></svg>