<svg id="Layer_1" data-name="Layer 1" xmlns="http://www.w3.org/2000/svg" viewBox="0 0 500 500"><defs><style>.cls-1{fill:#01071b;}.cls-2{fill:#006aff;}</style></defs><path class="cls-1" d="M299.58,178.7v0L250,456.65,200.41,178.73v0c15.89-1.38,32.47-2.14,49.57-2.14S283.68,177.32,299.58,178.7Z"/><path class="cls-2" d="M326.09,155a586,586,0,0,0-152.17,0L250,43.35Z"/><path class="cls-1" d="M250,176.56c-114.44,0-207.2,33.49-207.2,74.81,0,31.81,55,59,132.48,69.78l-.18-1c-48.2-8.43-80.89-24.72-80.89-43.45,0-27.37,69.75-49.53,155.79-49.53S405.8,249.28,405.8,276.65c0,18.73-32.69,35-80.92,43.45l-.17,1c77.5-10.82,132.5-38,132.5-69.78C457.21,210.05,364.42,176.56,250,176.56Z"/></svg>