<svg id="Layer_1" data-name="Layer 1" xmlns="http://www.w3.org/2000/svg" xmlns:xlink="http://www.w3.org/1999/xlink" viewBox="0 0 500 500"><defs><style>.cls-1{fill:url(#linear-gradient);}.cls-2{fill:url(#linear-gradient-2);}.cls-3{fill:url(#linear-gradient-3);}.cls-4{fill:url(#linear-gradient-4);}.cls-5{fill:url(#linear-gradient-5);}</style><linearGradient id="linear-gradient" x1="421.46" y1="104.57" x2="222.79" y2="104.57" gradientUnits="userSpaceOnUse"><stop offset="0" stop-color="#ff7100"/><stop offset="1" stop-color="#ffd262"/></linearGradient><linearGradient id="linear-gradient-2" x1="289.01" y1="64.28" x2="507.44" y2="64.28" xlink:href="#linear-gradient"/><linearGradient id="linear-gradient-3" x1="438.47" y1="275.7" x2="142.01" y2="275.7" xlink:href="#linear-gradient"/><linearGradient id="linear-gradient-4" x1="143.05" y1="391.2" x2="361.48" y2="391.2" xlink:href="#linear-gradient"/><linearGradient id="linear-gradient-5" x1="198.82" y1="210.09" x2="417.25" y2="210.09" xlink:href="#linear-gradient"/></defs><path class="cls-1" d="M226.05,122.57s12.76,45.56,131.13,35.05l64.28-25.84S213.88,121.59,260.47,72s-26.41,0-26.41,0l-5.93,17.73L222.79,99S223.83,118,226.05,122.57Z"/><path class="cls-2" d="M427.79,6s.4,51.67-109.57,58.48-92.17,58.09-92.17,58.09-41.53-97.34,66.06-99.75S427.79,6,427.79,6Z"/><path class="cls-3" d="M145.11,288.4c5.1,11.72,52.41,76.36,247.08,36.85l46.28-36.85S137.05,268,194.41,213.49c0,0-28.48,8.42-29.67,9.62s-19.63,23.63-19.63,23.63S138.14,268.37,145.11,288.4Z"/><path class="cls-4" d="M438.47,288.4s.71,91.14-197,103.15S75.71,494,75.71,494,1,322.31,194.49,318.08,438.47,288.4,438.47,288.4Z"/><path class="cls-5" d="M421.46,131.78s.54,69.43-150.09,78.58-126.26,78-126.26,78-56.89-130.79,90.49-134S421.46,131.78,421.46,131.78Z"/></svg>