<svg id="Layer_1" data-name="Layer 1" xmlns="http://www.w3.org/2000/svg" viewBox="0 0 1082.53 325.58"><defs><style>.cls-1{fill:#121212;}.cls-2{fill:#00ef6d;}.cls-3{fill:#ff3147;}.cls-4{fill:#ffca00;}.cls-5{fill:#00d2ff;}.cls-6{fill:#fff;}</style></defs><rect class="cls-1" width="1082.53" height="325.58" rx="62.53"/><path class="cls-2" d="M244.76,132.86l-29.13,28.95-85.55-87.1a14.43,14.43,0,0,1,14.83-.11Z"/><path class="cls-3" d="M245.48,192.3,144.91,251a14.48,14.48,0,0,1-17.4-2.07l88.11-87.09Z"/><path class="cls-4" d="M274.54,175.34l-28.83,16.83-.23.13-29.85-30.49,29.13-28.95.23.14,29.55,17.24A14.53,14.53,0,0,1,274.54,175.34Z"/><path class="cls-5" d="M127.51,248.9l-.19-.18a14.32,14.32,0,0,1-4.27-10.3V87.16a14.4,14.4,0,0,1,6.81-12.31l.22-.14,85.55,87.1Z"/><path class="cls-6" d="M446.37,183.39H404.54V195h29.33a30.4,30.4,0,1,1-8.75-30.38l8.2-8.2A42,42,0,1,0,446.53,187C446.53,185.77,446.47,184.57,446.37,183.39Z"/><path class="cls-6" d="M479.42,174.71a27,27,0,1,0,26.84,27A26.93,26.93,0,0,0,479.42,174.71Zm0,43.31c-8.12,0-14.7-7.1-14.7-15.86s6.58-15.87,14.7-15.87,14.69,7.11,14.69,15.87S487.53,218,479.42,218Z"/><path class="cls-6" d="M539.15,174.71a27,27,0,1,0,26.85,27A26.93,26.93,0,0,0,539.15,174.71Zm0,43.31c-8.11,0-14.69-7.1-14.69-15.86s6.58-15.87,14.69-15.87,14.7,7.11,14.7,15.87S547.27,218,539.15,218Z"/><rect class="cls-6" x="627.79" y="144.99" width="11.59" height="84.83"/><path class="cls-6" d="M687,208.67a15.83,15.83,0,0,1-26.71,2.76L699.68,196l-.61-2c-.23-.76-.48-1.5-.76-2.21a27.36,27.36,0,1,0-25.5,37.38,27.44,27.44,0,0,0,24.75-15.68l1-2.16L688,206.66ZM683.39,190l-26.33,10.31a15.82,15.82,0,0,1,10-13.27,15.6,15.6,0,0,1,5.75-1.09A15.85,15.85,0,0,1,683.39,190Z"/><path class="cls-6" d="M610.16,174.71v4.76a22.58,22.58,0,0,0-13.79-4.76c-13.44,0-24.33,12.09-24.33,27s10.89,27,24.33,27A22.52,22.52,0,0,0,610.16,224v5.83c0,3.34-2.4,12.61-13.33,12.61a14.69,14.69,0,0,1-14-9.77l-10.51,4.89s4,15.43,25.56,15.43c11.7,0,17.73-6.8,20.81-13a30.72,30.72,0,0,0,3.07-13.6V174.71ZM596.37,218c-7.35,0-13.32-7.1-13.32-15.86s6-15.87,13.32-15.87,13.32,7.11,13.32,15.87S603.72,218,596.37,218Z"/><rect class="cls-6" x="739.83" y="144.99" width="11.59" height="84.83"/><path class="cls-6" d="M767.64,145v11.59c8.12,0,14.7,7.1,14.7,15.87s-6.58,15.86-14.7,15.86V199a27,27,0,0,0,0-54Z"/><rect class="cls-6" x="748.18" y="144.99" width="19.46" height="11.59"/><rect class="cls-6" x="748.18" y="188.31" width="19.46" height="10.73"/><rect class="cls-6" x="800.52" y="144.99" width="11.59" height="84.83"/><path class="cls-6" d="M850,222.42l1.42-1.53V229h9.76V194a27.11,27.11,0,0,0-1.17-8.45,12.52,12.52,0,0,0-3.6-5.64,15.68,15.68,0,0,0-6.38-3.28,36.68,36.68,0,0,0-9.62-1.09,36.14,36.14,0,0,0-6.13.51,40.16,40.16,0,0,0-5.51,1.31,31.88,31.88,0,0,0-3.88,1.5l.61,9.17c.72-.36,1.52-.74,2.41-1.13a35.65,35.65,0,0,1,4.91-1.74,23.56,23.56,0,0,1,6.39-.8,16.37,16.37,0,0,1,4.65.58,7.23,7.23,0,0,1,3.21,1.93,7.47,7.47,0,0,1,1.72,3.22,16.34,16.34,0,0,1,.5,4.24v3.78h-5.59a58.72,58.72,0,0,0-11.29,1,24.16,24.16,0,0,0-8,2.93,12.87,12.87,0,0,0-4.7,4.9,14.93,14.93,0,0,0-1.57,7,16.25,16.25,0,0,0,1.24,6.57,12.84,12.84,0,0,0,3.48,4.66,15.23,15.23,0,0,0,5.36,2.86,23.48,23.48,0,0,0,6.9,1,19.25,19.25,0,0,0,8.23-1.73A21.39,21.39,0,0,0,850,222.42Zm-6.07-3.13a10.85,10.85,0,0,1-5.76,1.6,8.59,8.59,0,0,1-5.95-2A7,7,0,0,1,830,213.5a8,8,0,0,1,.77-3.57,6.94,6.94,0,0,1,2.45-2.71,11.63,11.63,0,0,1,4.12-1.59,29.05,29.05,0,0,1,5.87-.52h6.08v9.47l-.21.23A22.79,22.79,0,0,1,843.91,219.29Z"/><polygon class="cls-6" points="907.18 175.62 898.71 195.2 893.5 207.24 889.97 199.09 879.82 175.62 867.2 175.62 883.66 213.68 887.33 222.17 877.77 245.53 890.4 245.53 898.71 224.4 905.02 209.8 919.8 175.62 907.18 175.62"/><path class="cls-6" d="M432.88,113.4a4.14,4.14,0,0,1-.06.75,1.86,1.86,0,0,1-.21.55,1,1,0,0,1-.34.34.82.82,0,0,1-.43.12H412.17a2.09,2.09,0,0,1-1.2-.44,1.85,1.85,0,0,1-.61-1.61V75.2a1.86,1.86,0,0,1,.61-1.61,2.08,2.08,0,0,1,1.2-.43h19.38a.78.78,0,0,1,.42.11.9.9,0,0,1,.33.34,1.9,1.9,0,0,1,.19.57,3.74,3.74,0,0,1,.07.79,3.42,3.42,0,0,1-.07.75,1.79,1.79,0,0,1-.19.54,1,1,0,0,1-.33.32.78.78,0,0,1-.42.11H414.32V91.46h14.86a.85.85,0,0,1,.46.12.89.89,0,0,1,.32.32,1.67,1.67,0,0,1,.2.55,4.66,4.66,0,0,1,.06.8,3.91,3.91,0,0,1-.06.73,1.54,1.54,0,0,1-.2.5.8.8,0,0,1-.32.29,1,1,0,0,1-.46.1H414.32v16.75h17.52a.92.92,0,0,1,.43.11,1.18,1.18,0,0,1,.34.33,1.66,1.66,0,0,1,.21.55A4.62,4.62,0,0,1,432.88,113.4Z"/><path class="cls-6" d="M468.29,75a4.22,4.22,0,0,1-.06.75,1.79,1.79,0,0,1-.19.54,1,1,0,0,1-.33.32.78.78,0,0,1-.42.11H454.76v37.82a.6.6,0,0,1-.1.35.61.61,0,0,1-.32.26,2.82,2.82,0,0,1-.62.17,7.39,7.39,0,0,1-1.88,0,2.82,2.82,0,0,1-.62-.17.61.61,0,0,1-.32-.26.6.6,0,0,1-.1-.35V76.69H438.27a.78.78,0,0,1-.44-.11,1.06,1.06,0,0,1-.31-.32,1.79,1.79,0,0,1-.19-.54,4.16,4.16,0,0,1-.07-.75,4.55,4.55,0,0,1,.07-.79,1.9,1.9,0,0,1,.19-.57.94.94,0,0,1,.31-.34.78.78,0,0,1,.44-.11h29a.78.78,0,0,1,.42.11.9.9,0,0,1,.33.34,1.9,1.9,0,0,1,.19.57A4.62,4.62,0,0,1,468.29,75Z"/><path class="cls-6" d="M494,114.51a.6.6,0,0,1-.1.35.61.61,0,0,1-.32.26,2.76,2.76,0,0,1-.6.17,7.55,7.55,0,0,1-1.9,0,2.82,2.82,0,0,1-.62-.17.61.61,0,0,1-.32-.26.6.6,0,0,1-.1-.35V73.8a.63.63,0,0,1,.11-.35.77.77,0,0,1,.36-.26,2.64,2.64,0,0,1,.62-.16A4.59,4.59,0,0,1,492,73a5.1,5.1,0,0,1,1,.07,2.33,2.33,0,0,1,.6.16.61.61,0,0,1,.32.26.62.62,0,0,1,.1.35Z"/><path class="cls-6" d="M531.69,75a3.42,3.42,0,0,1-.07.75,1.79,1.79,0,0,1-.19.54,1,1,0,0,1-.33.32.78.78,0,0,1-.42.11H518.15v37.82a.6.6,0,0,1-.1.35.61.61,0,0,1-.32.26,2.82,2.82,0,0,1-.62.17,7.39,7.39,0,0,1-1.88,0,2.82,2.82,0,0,1-.62-.17.61.61,0,0,1-.32-.26.6.6,0,0,1-.1-.35V76.69H501.66a.78.78,0,0,1-.44-.11,1,1,0,0,1-.3-.32,1.56,1.56,0,0,1-.2-.54,4.22,4.22,0,0,1-.06-.75,4.62,4.62,0,0,1,.06-.79,1.66,1.66,0,0,1,.2-.57.92.92,0,0,1,.3-.34.78.78,0,0,1,.44-.11h29a.78.78,0,0,1,.42.11.9.9,0,0,1,.33.34,1.9,1.9,0,0,1,.19.57A3.74,3.74,0,0,1,531.69,75Z"/><path class="cls-6" d="M587.19,93.67a33.32,33.32,0,0,1-1.15,9.1,19.3,19.3,0,0,1-3.46,7,15.16,15.16,0,0,1-5.81,4.43,22.37,22.37,0,0,1-16.21.08A14.07,14.07,0,0,1,555,110a17.9,17.9,0,0,1-3.18-6.7,35.88,35.88,0,0,1-1-8.93,33.28,33.28,0,0,1,1.13-9,18.72,18.72,0,0,1,3.46-6.86,15.63,15.63,0,0,1,5.81-4.4,20,20,0,0,1,8.2-1.56,19.75,19.75,0,0,1,7.92,1.46,14.43,14.43,0,0,1,5.53,4.19,18.07,18.07,0,0,1,3.25,6.62A33.87,33.87,0,0,1,587.19,93.67ZM583,94a33.16,33.16,0,0,0-.7-7,16.26,16.26,0,0,0-2.3-5.68,11.29,11.29,0,0,0-4.27-3.8,14.19,14.19,0,0,0-6.59-1.38,13.69,13.69,0,0,0-6.57,1.45,12.07,12.07,0,0,0-4.35,3.88,15.91,15.91,0,0,0-2.4,5.68,30.87,30.87,0,0,0-.73,6.85,36.28,36.28,0,0,0,.66,7.12,16.33,16.33,0,0,0,2.26,5.73,11.1,11.1,0,0,0,4.25,3.81,14.34,14.34,0,0,0,6.65,1.38,13.78,13.78,0,0,0,6.66-1.47,12.37,12.37,0,0,0,4.35-4,16.84,16.84,0,0,0,2.37-5.75A32.36,32.36,0,0,0,583,94Z"/><path class="cls-6" d="M627.05,113.24a2.35,2.35,0,0,1-.18,1,1.88,1.88,0,0,1-.45.63,1.72,1.72,0,0,1-.62.34,2.56,2.56,0,0,1-.63.1h-.81a4,4,0,0,1-1.19-.17,3,3,0,0,1-1-.56,6,6,0,0,1-1-1.09,18.84,18.84,0,0,1-1.12-1.75l-14.8-26.23q-1.11-1.92-2.23-3.94c-.74-1.36-1.45-2.67-2.12-4h0c0,1.58,0,3.2,0,4.85v32.06a.68.68,0,0,1-.1.35.63.63,0,0,1-.33.26,2.76,2.76,0,0,1-.6.17,6.13,6.13,0,0,1-1,.06,6.41,6.41,0,0,1-1-.06,2.87,2.87,0,0,1-.61-.17.61.61,0,0,1-.42-.61V75.2a1.86,1.86,0,0,1,.61-1.61,2.08,2.08,0,0,1,1.2-.43h1.63a5.32,5.32,0,0,1,1.3.13,2.68,2.68,0,0,1,.94.43,3.92,3.92,0,0,1,.82.88q.4.57.9,1.44l11.32,20.1c.72,1.25,1.4,2.46,2,3.62s1.26,2.29,1.87,3.4l1.8,3.3c.6,1.08,1.19,2.17,1.77,3.28h0c0-1.82,0-3.71,0-5.68V73.93a.62.62,0,0,1,.1-.35.75.75,0,0,1,.32-.28,2,2,0,0,1,.6-.16,8.18,8.18,0,0,1,1,0,7.9,7.9,0,0,1,.91,0,2.13,2.13,0,0,1,.62.16,1,1,0,0,1,.34.28.63.63,0,0,1,.11.35Z"/><path class="cls-6" d="M362.56,94.12a20.55,20.55,0,0,0,41.1,0c0-.28,0-.57,0-.87H384.08v4h15.33l-.33,1.23a16.56,16.56,0,1,1-5.47-17.15l2.84-2.84a20.55,20.55,0,0,0-33.89,15.63Z"/></svg>