<svg id="Layer_1" data-name="Layer 1" xmlns="http://www.w3.org/2000/svg" viewBox="0 0 284.17 86.84"><defs><style>.cls-1{fill:#00adef;}.cls-2{fill:#f0297c;}.cls-3{fill:#001c74;}.cls-4{font-size:74.44px;font-family:MyriadPro-Bold, Myriad Pro;font-weight:700;}</style></defs><path class="cls-1" d="M42.22,58.46h0A29.23,29.23,0,0,1,13,29.23V0H42.22A29.23,29.23,0,0,1,71.45,29.23h0A29.23,29.23,0,0,1,42.22,58.46Z"/><path class="cls-2" d="M29.23,26h0A29.23,29.23,0,0,0,0,55.21V84.44H29.23A29.23,29.23,0,0,0,58.46,55.21h0A29.23,29.23,0,0,0,29.23,26Z"/><path class="cls-3" d="M13.15,30.83A29.09,29.09,0,0,0,58.29,53.61,29.09,29.09,0,0,0,13.15,30.83Z"/><text class="cls-4" transform="translate(84.67 68.23)">Dolbi.</text></svg>